<svg xmlns="http://www.w3.org/2000/svg" viewBox="0 0 64 64" role="img" aria-label="Frequency Sweep Generator logo">
  <defs>
    <linearGradient id="bg" x1="0" y1="0" x2="1" y2="1">
      <stop offset="0%" stop-color="#38bdf8" />
      <stop offset="100%" stop-color="#22d3ee" />
    </linearGradient>
    <linearGradient id="wave" x1="0" y1="0" x2="1" y2="0">
      <stop offset="0%" stop-color="#ffffff" stop-opacity="0.95" />
      <stop offset="100%" stop-color="#ffffff" stop-opacity="1" />
    </linearGradient>
    <filter id="glow" x="-20%" y="-20%" width="140%" height="140%">
      <feGaussianBlur stdDeviation="0.6" result="b" />
      <feMerge><feMergeNode in="b" /><feMergeNode in="SourceGraphic" /></feMerge>
    </filter>
  </defs>
  <rect width="64" height="64" rx="14" ry="14" fill="url(#bg)" />
  <path d="M 10.00 32.00 L 10.18 31.76 L 10.37 31.53 L 10.55 31.29 L 10.73 31.05 L 10.92 30.80 L 11.10 30.56 L 11.28 30.32 L 11.47 30.08 L 11.65 29.83 L 11.83 29.59 L 12.02 29.34 L 12.20 29.10 L 12.38 28.86 L 12.57 28.62 L 12.75 28.38 L 12.93 28.14 L 13.12 27.90 L 13.30 27.66 L 13.48 27.43 L 13.67 27.20 L 13.85 26.97 L 14.03 26.75 L 14.22 26.52 L 14.40 26.31 L 14.58 26.09 L 14.77 25.88 L 14.95 25.68 L 15.13 25.48 L 15.32 25.28 L 15.50 25.09 L 15.68 24.91 L 15.87 24.73 L 16.05 24.56 L 16.23 24.39 L 16.42 24.24 L 16.60 24.09 L 16.78 23.95 L 16.97 23.81 L 17.15 23.69 L 17.33 23.58 L 17.52 23.47 L 17.70 23.37 L 17.88 23.29 L 18.07 23.21 L 18.25 23.15 L 18.43 23.10 L 18.62 23.05 L 18.80 23.02 L 18.98 23.01 L 19.17 23.00 L 19.35 23.01 L 19.53 23.03 L 19.72 23.06 L 19.90 23.10 L 20.08 23.16 L 20.27 23.24 L 20.45 23.32 L 20.63 23.42 L 20.82 23.54 L 21.00 23.67 L 21.18 23.81 L 21.37 23.97 L 21.55 24.14 L 21.73 24.33 L 21.92 24.53 L 22.10 24.75 L 22.28 24.98 L 22.47 25.22 L 22.65 25.48 L 22.83 25.75 L 23.02 26.04 L 23.20 26.34 L 23.38 26.65 L 23.57 26.97 L 23.75 27.31 L 23.93 27.66 L 24.12 28.02 L 24.30 28.39 L 24.48 28.77 L 24.67 29.16 L 24.85 29.56 L 25.03 29.96 L 25.22 30.38 L 25.40 30.80 L 25.58 31.23 L 25.77 31.66 L 25.95 32.09 L 26.13 32.53 L 26.32 32.97 L 26.50 33.41 L 26.68 33.85 L 26.87 34.29 L 27.05 34.73 L 27.23 35.16 L 27.42 35.59 L 27.60 36.01 L 27.78 36.42 L 27.97 36.83 L 28.15 37.22 L 28.33 37.60 L 28.52 37.97 L 28.70 38.32 L 28.88 38.66 L 29.07 38.98 L 29.25 39.28 L 29.43 39.56 L 29.62 39.82 L 29.80 40.06 L 29.98 40.28 L 30.17 40.46 L 30.35 40.63 L 30.53 40.76 L 30.72 40.86 L 30.90 40.94 L 31.08 40.99 L 31.27 41.00 L 31.45 40.98 L 31.63 40.93 L 31.82 40.85 L 32.00 40.73 L 32.18 40.58 L 32.37 40.39 L 32.55 40.17 L 32.73 39.92 L 32.92 39.63 L 33.10 39.31 L 33.28 38.96 L 33.47 38.58 L 33.65 38.16 L 33.83 37.72 L 34.02 37.25 L 34.20 36.75 L 34.38 36.23 L 34.57 35.68 L 34.75 35.11 L 34.93 34.53 L 35.12 33.93 L 35.30 33.31 L 35.48 32.69 L 35.67 32.05 L 35.85 31.41 L 36.03 30.77 L 36.22 30.13 L 36.40 29.50 L 36.58 28.88 L 36.77 28.26 L 36.95 27.67 L 37.13 27.09 L 37.32 26.54 L 37.50 26.01 L 37.68 25.52 L 37.87 25.06 L 38.05 24.64 L 38.23 24.26 L 38.42 23.92 L 38.60 23.63 L 38.78 23.40 L 38.97 23.21 L 39.15 23.08 L 39.33 23.01 L 39.52 23.00 L 39.70 23.05 L 39.88 23.16 L 40.07 23.34 L 40.25 23.58 L 40.43 23.87 L 40.62 24.23 L 40.80 24.65 L 40.98 25.13 L 41.17 25.66 L 41.35 26.25 L 41.53 26.88 L 41.72 27.56 L 41.90 28.28 L 42.08 29.04 L 42.27 29.82 L 42.45 30.63 L 42.63 31.46 L 42.82 32.30 L 43.00 33.14 L 43.18 33.97 L 43.37 34.80 L 43.55 35.60 L 43.73 36.38 L 43.92 37.12 L 44.10 37.82 L 44.28 38.46 L 44.47 39.05 L 44.65 39.58 L 44.83 40.03 L 45.02 40.40 L 45.20 40.68 L 45.38 40.88 L 45.57 40.98 L 45.75 40.99 L 45.93 40.90 L 46.12 40.71 L 46.30 40.42 L 46.48 40.03 L 46.67 39.55 L 46.85 38.97 L 47.03 38.30 L 47.22 37.56 L 47.40 36.74 L 47.58 35.86 L 47.77 34.92 L 47.95 33.93 L 48.13 32.92 L 48.32 31.88 L 48.50 30.84 L 48.68 29.81 L 48.87 28.80 L 49.05 27.83 L 49.23 26.91 L 49.42 26.06 L 49.60 25.29 L 49.78 24.61 L 49.97 24.03 L 50.15 23.58 L 50.33 23.25 L 50.52 23.06 L 50.70 23.00 L 50.88 23.09 L 51.07 23.33 L 51.25 23.71 L 51.43 24.23 L 51.62 24.89 L 51.80 25.68 L 51.98 26.58 L 52.17 27.59 L 52.35 28.68 L 52.53 29.84 L 52.72 31.05 L 52.90 32.29 L 53.08 33.53 L 53.27 34.74 L 53.45 35.92 L 53.63 37.02 L 53.82 38.03 L 54.00 38.92"
        fill="none" stroke="url(#wave)" stroke-width="2.6" stroke-linecap="round" stroke-linejoin="round" filter="url(#glow)" />
</svg>
